<svg width="41" height="35" viewBox="0 0 41 35" fill="none" xmlns="http://www.w3.org/2000/svg">
<path d="M20.2108 11.912L20.0148 11.156C20.0148 11.0067 20.0894 10.932 20.2388 10.932C20.2948 10.932 20.3694 10.96 20.4628 11.016C20.8921 11.3333 21.1068 11.7533 21.1068 12.276C21.1068 12.7987 20.7708 13.312 20.0988 13.816C19.4268 14.3013 18.5774 14.544 17.5508 14.544C17.2334 14.544 16.9161 14.516 16.5988 14.46C15.3108 16.8307 13.7428 19.0147 11.8948 21.012C9.43075 23.6253 7.19075 24.932 5.17475 24.932C2.26275 24.932 0.80675 23.2147 0.80675 19.78C0.80675 16.9427 1.56275 14.656 3.07475 12.92C4.34408 11.4267 5.80008 10.68 7.44275 10.68C7.87208 10.68 8.31075 10.7547 8.75875 10.904C9.86008 11.3333 10.4108 12.248 10.4108 13.648C10.4108 15.0293 9.84142 16.476 8.70275 17.988C7.56408 19.5 6.39742 20.256 5.20275 20.256C3.85875 20.256 3.18675 19.528 3.18675 18.072C3.18675 17.6613 3.27075 17.232 3.43875 16.784C3.62542 16.336 3.83075 16.112 4.05475 16.112C4.22275 16.112 4.30675 16.196 4.30675 16.364C4.30675 16.4573 4.22275 16.6907 4.05475 17.064C3.88675 17.4373 3.80275 17.7733 3.80275 18.072C3.80275 18.352 3.95208 18.6227 4.25075 18.884C4.56808 19.1267 4.89475 19.248 5.23075 19.248C6.33208 19.248 7.34942 18.576 8.28275 17.232C9.23475 15.8693 9.71075 14.544 9.71075 13.256C9.71075 12.2667 9.35608 11.6133 8.64675 11.296C8.40408 11.2027 8.15208 11.156 7.89075 11.156C6.56542 11.156 5.24008 12.0707 3.91475 13.9C2.62675 15.748 1.98275 17.7733 1.98275 19.976C1.98275 21.1893 2.24408 22.1787 2.76675 22.944C3.30808 23.728 4.05475 24.12 5.00675 24.12C7.47075 24.12 10.6814 20.7693 14.6388 14.068C12.5854 13.452 11.5588 12.2387 11.5588 10.428C11.5588 8.02 12.7814 6.09733 15.2268 4.66C16.7761 3.764 18.2788 3.316 19.7348 3.316C20.8734 3.316 21.9001 3.50267 22.8148 3.876C24.1028 4.38 24.7468 5.14533 24.7468 6.172C24.7468 6.396 24.6908 6.61067 24.5788 6.816C24.4854 7.02133 24.3828 7.124 24.2708 7.124C24.0281 6.88133 23.7388 6.76 23.4028 6.76C21.8161 6.76 19.6414 9.12133 16.8788 13.844C17.0281 13.8627 17.1868 13.872 17.3548 13.872C17.9894 13.872 18.6241 13.6853 19.2588 13.312C19.8934 12.9387 20.2108 12.472 20.2108 11.912ZM20.4068 4.1C19.4548 4.1 18.3534 4.38 17.1028 4.94C15.8708 5.48133 14.8814 6.284 14.1348 7.348C13.4068 8.412 13.0428 9.616 13.0428 10.96C13.0428 12.304 13.7334 13.1067 15.1148 13.368C16.1414 11.688 17.4668 10.0173 19.0908 8.356C20.7148 6.676 22.0681 5.836 23.1508 5.836C23.4308 5.836 23.6734 5.90133 23.8788 6.032C23.8601 5.50933 23.4961 5.052 22.7868 4.66C22.1521 4.28667 21.3588 4.1 20.4068 4.1ZM40.4036 6.424C40.4036 7.89867 39.6849 9.63467 38.2476 11.632C37.1276 13.2 35.6342 14.46 33.7676 15.412C31.9196 16.364 30.2116 16.84 28.6436 16.84C28.0649 16.84 27.5796 16.7747 27.1876 16.644C26.4036 17.652 25.1436 19.2293 23.4076 21.376C24.0609 22.3093 25.2369 23.1867 26.9356 24.008C28.6529 24.8293 30.1276 25.24 31.3596 25.24C32.5916 25.24 33.5062 25.072 34.1036 24.736C34.9249 24.3067 35.3356 23.6907 35.3356 22.888C35.3356 22.6827 35.3169 22.4867 35.2796 22.3C35.2422 22.1133 35.2982 22.02 35.4476 22.02C35.6156 22.02 35.7556 22.16 35.8676 22.44C35.9982 22.7013 36.0636 22.9347 36.0636 23.14C36.0636 23.7933 35.7182 24.4093 35.0276 24.988C34.1502 25.6973 32.9556 26.052 31.4436 26.052C29.9316 26.052 28.3636 25.6973 26.7396 24.988C25.1156 24.2787 23.7809 23.3173 22.7356 22.104C21.2422 23.5973 19.8236 24.344 18.4796 24.344C18.0689 24.344 17.7142 24.2693 17.4156 24.12C16.7622 23.7467 16.4356 23.0373 16.4356 21.992C16.4356 20.9467 16.8649 19.6587 17.7236 18.128C18.6009 16.5973 19.2916 15.7853 19.7956 15.692C20.1316 15.692 20.5142 16.0747 20.9436 16.84L22.7076 20.256C23.6969 18.9493 24.7329 17.5213 25.8156 15.972C24.2849 15.2813 23.5196 14.2827 23.5196 12.976C23.5196 11.8933 23.9582 11.016 24.8356 10.344C25.3209 9.98933 25.8342 9.812 26.3756 9.812C26.9356 9.812 27.3556 10.1013 27.6356 10.68C27.6916 10.792 27.6916 10.8667 27.6356 10.904C27.5982 10.9227 27.5702 10.9227 27.5516 10.904C27.1782 10.5307 26.7769 10.344 26.3476 10.344C26.3289 10.344 26.3102 10.344 26.2916 10.344C25.7502 10.344 25.2742 10.6333 24.8636 11.212C24.4716 11.7907 24.2756 12.3227 24.2756 12.808C24.2756 12.864 24.2756 12.92 24.2756 12.976C24.2756 13.9467 24.9476 14.7773 26.2916 15.468C26.5156 15.1507 26.8702 14.628 27.3556 13.9C27.8596 13.1533 28.2516 12.5747 28.5316 12.164C32.2462 6.71333 35.3356 3.988 37.7996 3.988C39.5356 3.988 40.4036 4.8 40.4036 6.424ZM37.9116 4.464C36.9782 4.464 35.8209 5.248 34.4396 6.816C33.4876 7.91733 32.3676 9.40133 31.0796 11.268C29.8102 13.116 28.6622 14.7027 27.6356 16.028C27.8782 16.084 28.1489 16.112 28.4476 16.112C29.7542 16.112 31.2476 15.664 32.9276 14.768C34.6076 13.872 35.9329 12.7427 36.9036 11.38C38.6022 9.00933 39.4516 7.208 39.4516 5.976C39.4516 5.22933 39.1249 4.75333 38.4716 4.548C38.3036 4.492 38.1169 4.464 37.9116 4.464ZM22.0076 21.18C21.5596 20.564 21.0929 19.78 20.6076 18.828C20.1222 17.8573 19.7956 17.2787 19.6276 17.092C19.4782 16.9053 19.3756 16.812 19.3196 16.812C19.2636 16.812 19.2262 16.812 19.2076 16.812C18.8716 16.868 18.5076 17.4653 18.1156 18.604C17.7236 19.7427 17.5276 20.8627 17.5276 21.964C17.5276 23.0467 17.8636 23.588 18.5356 23.588C19.0209 23.588 19.5996 23.336 20.2716 22.832C20.9622 22.328 21.5409 21.7773 22.0076 21.18Z" fill="#D1D1D1"/>
<path d="M0.21875 16H34.7756V17.4H0.21875V16Z" fill="#D1D1D1"/>
</svg>
